<svg xmlns="http://www.w3.org/2000/svg" viewBox="0 0 900 520" role="img" aria-label="具身智能学习包结构图">
  <rect width="900" height="520" fill="#ffffff"/>
  <rect x="40" y="38" width="820" height="444" rx="10" fill="#f8fafc" stroke="#d8dee8"/>
  <text x="70" y="86" font-family="Arial, PingFang SC, sans-serif" font-size="30" font-weight="700" fill="#101828">管理层具身智能学习路径</text>
  <text x="70" y="122" font-family="Arial, PingFang SC, sans-serif" font-size="16" fill="#596579">从战略问题进入，向公司、场景、证据和行动方案逐层下钻</text>
  <g font-family="Arial, PingFang SC, sans-serif" font-size="17" font-weight="700">
    <rect x="70" y="170" width="190" height="88" rx="8" fill="#eef6ff" stroke="#175c9e"/><text x="94" y="206" fill="#175c9e">管理层入口</text><text x="94" y="234" font-size="13" font-weight="400" fill="#596579">速读 / 决策地图 / 误区</text>
    <rect x="355" y="170" width="190" height="88" rx="8" fill="#edfafa" stroke="#147d78"/><text x="381" y="206" fill="#147d78">行业基础课</text><text x="381" y="234" font-size="13" font-weight="400" fill="#596579">技术栈 / 形态 / 政策</text>
    <rect x="640" y="170" width="190" height="88" rx="8" fill="#fff7e6" stroke="#b7791f"/><text x="662" y="206" fill="#8a5a12">公司与竞品</text><text x="662" y="234" font-size="13" font-weight="400" fill="#596579">中国为主 / 海外对照</text>
    <rect x="210" y="318" width="210" height="88" rx="8" fill="#f0fdf4" stroke="#287a46"/><text x="236" y="354" fill="#287a46">场景与商业化</text><text x="236" y="382" font-size="13" font-weight="400" fill="#596579">案例 36 条 / 场景 8 个</text>
    <rect x="500" y="318" width="210" height="88" rx="8" fill="#fff1f0" stroke="#b42318"/><text x="528" y="354" fill="#b42318">战略决策工具</text><text x="528" y="382" font-size="13" font-weight="400" fill="#596579">成熟度 / 试点 / ROI</text>
  </g>
  <path d="M260 214 H355" stroke="#98a2b3" stroke-width="3" marker-end="url(#arrow)"/><path d="M545 214 H640" stroke="#98a2b3" stroke-width="3" marker-end="url(#arrow)"/><path d="M735 258 C735 310 660 318 610 318" stroke="#98a2b3" stroke-width="3" fill="none" marker-end="url(#arrow)"/><path d="M315 318 C310 286 210 284 172 258" stroke="#98a2b3" stroke-width="3" fill="none" marker-end="url(#arrow)"/>
  <defs><marker id="arrow" viewBox="0 0 10 10" refX="8" refY="5" markerWidth="6" markerHeight="6" orient="auto-start-reverse"><path d="M0 0 L10 5 L0 10 z" fill="#98a2b3"/></marker></defs>
  <text x="70" y="455" font-family="Arial, PingFang SC, sans-serif" font-size="14" fill="#596579">当前包：44 个 Markdown、6 个数据表、51 家中国公司、20 家海外公司</text>
</svg>
